<svg xmlns="http://www.w3.org/2000/svg" viewBox="0 0 512 512" role="img" aria-labelledby="title desc">
  <title id="title">SknBlog 樱月小屋标志</title>
  <desc id="desc">圆形粉紫渐变标志，包含月牙、樱花、小屋与水波。</desc>
  <defs>
    <linearGradient id="ring" x1="70" y1="56" x2="454" y2="456" gradientUnits="userSpaceOnUse">
      <stop offset="0" stop-color="#ff9fc5"/><stop offset="0.48" stop-color="#c99bea"/><stop offset="1" stop-color="#86a8f3"/>
    </linearGradient>
    <linearGradient id="moon" x1="114" y1="74" x2="282" y2="250" gradientUnits="userSpaceOnUse">
      <stop offset="0" stop-color="#ffafd0"/><stop offset="0.55" stop-color="#d7a6ec"/><stop offset="1" stop-color="#8fa9ee"/>
    </linearGradient>
    <linearGradient id="roof" x1="174" y1="247" x2="351" y2="367" gradientUnits="userSpaceOnUse">
      <stop offset="0" stop-color="#8f8ae1"/><stop offset="1" stop-color="#647fd0"/>
    </linearGradient>
    <linearGradient id="water" x1="92" y1="366" x2="420" y2="424" gradientUnits="userSpaceOnUse">
      <stop offset="0" stop-color="#9ec2f5"/><stop offset="0.5" stop-color="#b69ce8"/><stop offset="1" stop-color="#f4a6c5"/>
    </linearGradient>
    <radialGradient id="bg" cx="38%" cy="25%" r="75%">
      <stop offset="0" stop-color="#ffffff"/><stop offset="0.72" stop-color="#fffafd"/><stop offset="1" stop-color="#f6f3ff"/>
    </radialGradient>
    <filter id="shadow" x="-30%" y="-30%" width="160%" height="160%">
      <feDropShadow dx="0" dy="8" stdDeviation="10" flood-color="#8f87c8" flood-opacity=".18"/>
    </filter>
    <symbol id="petal" viewBox="-12 -20 24 40"><path d="M0-18C9-11 11 0 0 18C-11 0-9-11 0-18Z" fill="currentColor"/></symbol>
    <symbol id="flower" viewBox="-28 -28 56 56">
      <g fill="currentColor">
        <use href="#petal" transform="rotate(0) translate(0 -8) scale(.72)"/>
        <use href="#petal" transform="rotate(72) translate(0 -8) scale(.72)"/>
        <use href="#petal" transform="rotate(144) translate(0 -8) scale(.72)"/>
        <use href="#petal" transform="rotate(216) translate(0 -8) scale(.72)"/>
        <use href="#petal" transform="rotate(288) translate(0 -8) scale(.72)"/>
      </g>
      <circle r="5.5" fill="#ffd86f"/><circle r="2.2" fill="#fff8cf"/>
    </symbol>
  </defs>

  <circle cx="256" cy="256" r="229" fill="url(#bg)" stroke="url(#ring)" stroke-width="12"/>
  <circle cx="256" cy="256" r="207" fill="none" stroke="#ffffff" stroke-width="4" opacity=".95"/>

  <path d="M103 217C107 130 176 72 259 79C214 101 188 142 190 185C192 230 223 266 268 281C188 295 109 261 103 217Z" fill="url(#moon)"/>
  <circle cx="211" cy="174" r="73" fill="url(#bg)"/>
  <g fill="#c69ae8"><path d="M293 88l7 17 17 7-17 7-7 17-7-17-17-7 17-7Z"/><path d="M337 129l4 10 10 4-10 4-4 10-4-10-10-4 10-4Z" opacity=".9"/><circle cx="315" cy="171" r="5"/></g>

  <path d="M80 270C120 237 155 228 198 230C230 231 256 214 284 194" fill="none" stroke="#8e78b7" stroke-width="9" stroke-linecap="round"/>
  <path d="M129 245C121 218 109 204 91 191M165 236C169 211 179 194 198 178M214 225C229 209 243 203 262 202" fill="none" stroke="#8e78b7" stroke-width="6" stroke-linecap="round"/>

  <g filter="url(#shadow)">
    <g color="#ff9fc2"><use href="#flower" x="66" y="165" width="58" height="58"/></g>
    <g color="#ffc0d8"><use href="#flower" x="92" y="202" width="68" height="68"/></g>
    <g color="#f08fb9"><use href="#flower" x="137" y="170" width="52" height="52"/></g>
    <g color="#ffb0cf"><use href="#flower" x="157" y="206" width="62" height="62"/></g>
    <g color="#f6a6cf"><use href="#flower" x="210" y="176" width="50" height="50"/></g>
    <g color="#ffb4d1"><use href="#flower" x="236" y="163" width="42" height="42"/></g>
  </g>

  <g filter="url(#shadow)">
    <path d="M176 330L264 255L352 330Z" fill="url(#roof)"/>
    <path d="M192 322H336V398H192Z" fill="#fffafc" stroke="#8091d4" stroke-width="7" stroke-linejoin="round"/>
    <path d="M158 326L264 235L370 326" fill="none" stroke="#6e78c8" stroke-width="12" stroke-linecap="round" stroke-linejoin="round"/>
    <path d="M226 398V339H275V398" fill="#ffc1d4" stroke="#8091d4" stroke-width="6"/>
    <rect x="292" y="338" width="28" height="31" rx="4" fill="#ffe7a6" stroke="#8091d4" stroke-width="5"/>
    <path d="M296 339V369M292 354H320" stroke="#8091d4" stroke-width="4"/>
    <rect x="299" y="244" width="19" height="55" rx="4" fill="#e99ab9" stroke="#7785cc" stroke-width="5"/>
    <path d="M307 239h24" stroke="#7785cc" stroke-width="8" stroke-linecap="round"/>
    <path d="M153 397H383" stroke="#7785cc" stroke-width="11" stroke-linecap="round"/>
    <path d="M342 396V359M376 396V359M335 361H383" stroke="#7785cc" stroke-width="7" stroke-linecap="round"/>
    <path d="M369 357V331" stroke="#7785cc" stroke-width="6" stroke-linecap="round"/>
    <circle cx="369" cy="322" r="9" fill="#ffb2c9" stroke="#7785cc" stroke-width="4"/>
  </g>

  <g fill="none" stroke="url(#water)" stroke-linecap="round">
    <path d="M99 417C140 394 176 399 208 417C244 438 280 438 315 417C348 398 386 398 419 416" stroke-width="12"/>
    <path d="M126 443C164 426 199 429 228 444C258 459 294 458 325 442C349 430 374 430 396 439" stroke-width="8" opacity=".85"/>
  </g>

  <g color="#f6a0c2" opacity=".88">
    <use href="#petal" x="365" y="159" width="22" height="36" transform="rotate(25 376 177)"/>
    <use href="#petal" x="403" y="205" width="18" height="30" transform="rotate(62 412 220)"/>
    <use href="#petal" x="90" y="339" width="20" height="34" transform="rotate(-38 100 356)"/>
    <use href="#petal" x="394" y="303" width="16" height="28" transform="rotate(28 402 317)"/>
  </g>
</svg>
